# xmcd
#
# Track frame offsets:
#	150
#	20162
#	36559
#	52225
#	69860
#	87401
#	104838
#	119863
#	133215
#	145231
#	164194
#	178710
#	192468
#	209082
#	225081
#
# Disc length: 3179 seconds
#
# Revision: 1
# Processed by: cddbd v1.4PL0 Copyright (c) Steve Scherf et al.
# Submitted via: CDmax 1.9
#
DISCID=f90c690f
DTITLE=Johnny Cash - The Man Comes Around
DYEAR=2002
DGENRE=Country
TTITLE0=The Man Comes Around
TTITLE1=Hurt
TTITLE2=Give My Love to Rose
TTITLE3=Bridge Over Troubled Water
TTITLE4=I Hung My Head
TTITLE5=The First Time Ever I Saw Your Face
TTITLE6=Personal Jesus
TTITLE7=In My Life
TTITLE8=Sam Hall
TTITLE9=Danny Boy
TTITLE10=Desperado
TTITLE11=I'm So Lonesome I Could Cry
TTITLE12=Tear Stained Letter
TTITLE13=The Streets of Laredo
TTITLE14=We'll Meet Again
EXTD=
EXTT0=
EXTT1=
EXTT2=
EXTT3=
EXTT4=
EXTT5=
EXTT6=
EXTT7=
EXTT8=
EXTT9=
EXTT10=
EXTT11=
EXTT12=
EXTT13=
EXTT14=
PLAYORDER=
